# xmcd
#
# Track frame offsets: 
#        150
#        16470
#        37679
#        48305
#        66384
#        76208
#        94332
#        112290
#        125513
#        141670
#        164884
#        178021
#
# Disc length: 2567 seconds
#
# Revision: 0
# Processed by: cddbd v1.5.2PL0 Copyright (c) Steve Scherf et al.
# Submitted via: ExactAudioCopy v1.0b3
#
DISCID=b10a050c
DTITLE=小沢昭一 - 小沢昭一の小沢昭一的こころ
DYEAR=1975
DGENRE=Blues
TTITLE0=俺達おじさんには
TTITLE1=美しき天然
TTITLE2=しゃぼん玉
TTITLE3=籠の鳥
TTITLE4=ストトン節
TTITLE5=土耳古行進曲
TTITLE6=ハーモニカブルース
TTITLE7=アレ野たれ死に(夢も希望も絶えはてて)
TTITLE8=エロ事師の歌
TTITLE9=お父さんエレジー
TTITLE10=父チャン音頭
TTITLE11=明日の心だ
EXTD=
EXTT0=
EXTT1=
EXTT2=
EXTT3=
EXTT4=
EXTT5=
EXTT6=
EXTT7=
EXTT8=
EXTT9=
EXTT10=
EXTT11=
PLAYORDER=
